<svg width="11" height="12" viewBox="0 0 11 12" fill="none" xmlns="http://www.w3.org/2000/svg">
<path d="M1 0V2.5H0.5V3.5H2V1H10V11H2V9.5H1V12H11V0H1ZM6 3C4.9 3 4 3.9 4 5C4 5.5565 4.2385 6.0585 4.6095 6.422C4.26932 6.65182 3.99042 6.96126 3.79706 7.32341C3.60369 7.68556 3.50172 8.08946 3.5 8.5H4.5C4.5 8.10218 4.65804 7.72064 4.93934 7.43934C5.22064 7.15804 5.60218 7 6 7C6.39782 7 6.77936 7.15804 7.06066 7.43934C7.34196 7.72064 7.5 8.10218 7.5 8.5H8.5C8.49828 8.08946 8.39631 7.68556 8.20294 7.32341C8.00958 6.96126 7.73068 6.65182 7.3905 6.422C7.7615 6.0585 8 5.557 8 5C8 3.9 7.1 3 6 3ZM1 4V5H0.5V6H2V4H1ZM6 4C6.5585 4 7 4.4415 7 5C7 5.5585 6.5585 6 6 6C5.4415 6 5 5.5585 5 5C5 4.4415 5.4415 4 6 4ZM1 6.5V7.5H0.5V8.5H2V6.5H1Z" fill="black" fill-opacity="0.65"/>
</svg>
