<svg width="16" height="16" viewBox="0 0 16 16" fill="none" xmlns="http://www.w3.org/2000/svg">
<path fill-rule="evenodd" clip-rule="evenodd" d="M2.66666 14.3333C2.66666 14.2449 2.70178 14.1601 2.76429 14.0976C2.8268 14.0351 2.91158 14 2.99999 14H13C13.0884 14 13.1732 14.0351 13.2357 14.0976C13.2982 14.1601 13.3333 14.2449 13.3333 14.3333C13.3333 14.4217 13.2982 14.5065 13.2357 14.569C13.1732 14.6315 13.0884 14.6667 13 14.6667H2.99999C2.91158 14.6667 2.8268 14.6315 2.76429 14.569C2.70178 14.5065 2.66666 14.4217 2.66666 14.3333Z" fill="black" fill-opacity="0.65"/>
<path fill-rule="evenodd" clip-rule="evenodd" d="M3.99998 7.33332V14H5.66665V7.33332H3.99998ZM3.66665 6.66666C3.57824 6.66666 3.49346 6.70178 3.43094 6.76429C3.36843 6.8268 3.33331 6.91158 3.33331 6.99999V14.3333C3.33331 14.4217 3.36843 14.5065 3.43094 14.569C3.49346 14.6315 3.57824 14.6667 3.66665 14.6667H5.99998C6.08839 14.6667 6.17317 14.6315 6.23568 14.569C6.29819 14.5065 6.33331 14.4217 6.33331 14.3333V6.99999C6.33331 6.91158 6.29819 6.8268 6.23568 6.76429C6.17317 6.70178 6.08839 6.66666 5.99998 6.66666H3.66665Z" fill="black" fill-opacity="0.65"/>
<path fill-rule="evenodd" clip-rule="evenodd" d="M5.66666 1.33333L11 3.33333V8H9.33332C9.24492 8 9.16013 8.03511 9.09762 8.09763C9.03511 8.16014 8.99999 8.24492 8.99999 8.33333V14H5.66666V1.33333ZM6.66666 4.33333H7.33332V4.99999H6.66666V4.33333ZM8.66666 4.33333H7.99999V4.99999H8.66666V4.33333ZM9.33332 4.33333H9.99999V4.99999H9.33332V4.33333ZM7.33332 5.66666H6.66666V6.33333H7.33332V5.66666ZM7.99999 5.66666H8.66666V6.33333H7.99999V5.66666ZM9.99999 5.66666H9.33332V6.33333H9.99999V5.66666ZM6.66666 7H7.33332V7.66666H6.66666V7ZM8.66666 7H7.99999V7.66666H8.66666V7ZM9.33332 7H9.99999V7.66666H9.33332V7ZM7.33332 8.33333H6.66666V9H7.33332V8.33333ZM7.99999 8.33333H8.66666V9H7.99999V8.33333ZM6.66666 9.66666H7.33332V10.3333H6.66666V9.66666ZM8.66666 9.66666H7.99999V10.3333H8.66666V9.66666ZM7.33332 11H6.66666V11.6667H7.33332V11ZM7.99999 11H8.66666V11.6667H7.99999V11ZM6.66666 12.3333H7.33332V13H6.66666V12.3333ZM8.66666 12.3333H7.99999V13H8.66666V12.3333Z" fill="black" fill-opacity="0.65"/>
<path fill-rule="evenodd" clip-rule="evenodd" d="M9.66667 8.66667V14H12V8.66667H9.66667ZM9.33333 8C9.24493 8 9.16014 8.03512 9.09763 8.09763C9.03512 8.16014 9 8.24493 9 8.33333V14.3333C9 14.4217 9.03512 14.5065 9.09763 14.569C9.16014 14.6315 9.24493 14.6667 9.33333 14.6667H12.3333C12.4217 14.6667 12.5065 14.6315 12.569 14.569C12.6315 14.5065 12.6667 14.4217 12.6667 14.3333V8.33333C12.6667 8.24493 12.6315 8.16014 12.569 8.09763C12.5065 8.03512 12.4217 8 12.3333 8H9.33333Z" fill="black" fill-opacity="0.65"/>
<path fill-rule="evenodd" clip-rule="evenodd" d="M11.3333 10H10.3333V9.33333H11.3333V10ZM11.3333 11.3333H10.3333V10.6667H11.3333V11.3333ZM11.3333 12.6667H10.3333V12H11.3333V12.6667ZM11.3333 14H10.3333V13.3333H11.3333V14ZM4.99998 4.33333V6.99999H4.33331V4.33333H4.99998Z" fill="black" fill-opacity="0.65"/>
</svg>
