<svg width="14" height="11" viewBox="0 0 14 11" fill="none" xmlns="http://www.w3.org/2000/svg">
<path d="M11.4 0.200001C11.9304 0.200001 12.4391 0.410714 12.8142 0.785787C13.1893 1.16086 13.4 1.66957 13.4 2.2V8.6C13.4 9.13043 13.1893 9.63914 12.8142 10.0142C12.4391 10.3893 11.9304 10.6 11.4 10.6H2.60001C2.06957 10.6 1.56087 10.3893 1.18579 10.0142C0.81072 9.63914 0.600006 9.13043 0.600006 8.6V2.2C0.600006 1.66957 0.81072 1.16086 1.18579 0.785787C1.56087 0.410714 2.06957 0.200001 2.60001 0.200001H11.4ZM12.6 3.3688L7.20321 6.5448C7.15218 6.57476 7.09515 6.59302 7.03622 6.59828C6.97729 6.60354 6.91792 6.59565 6.86241 6.5752L6.79681 6.5448L1.40001 3.3704V8.6C1.40001 8.91826 1.52643 9.22349 1.75148 9.44853C1.97652 9.67357 2.28175 9.8 2.60001 9.8H11.4C11.7183 9.8 12.0235 9.67357 12.2485 9.44853C12.4736 9.22349 12.6 8.91826 12.6 8.6V3.3688ZM11.4 1H2.60001C2.28175 1 1.97652 1.12643 1.75148 1.35147C1.52643 1.57652 1.40001 1.88174 1.40001 2.2V2.4416L7.00001 5.736L12.6 2.44V2.2C12.6 1.88174 12.4736 1.57652 12.2485 1.35147C12.0235 1.12643 11.7183 1 11.4 1Z" fill="black" fill-opacity="0.65"/>
</svg>
