<svg width="12" height="13" viewBox="0 0 12 13" fill="none" xmlns="http://www.w3.org/2000/svg">
<path d="M6 0.333328C5.34073 0.333328 4.69626 0.528825 4.1481 0.895096C3.59994 1.26137 3.17269 1.78196 2.9204 2.39105C2.66811 3.00014 2.6021 3.67036 2.73072 4.31696C2.85933 4.96357 3.1768 5.55751 3.64298 6.02368C4.10915 6.48986 4.7031 6.80733 5.3497 6.93595C5.9963 7.06456 6.66652 6.99855 7.27561 6.74626C7.8847 6.49397 8.40529 6.06673 8.77157 5.51856C9.13784 4.9704 9.33333 4.32593 9.33333 3.66666C9.33333 2.78261 8.98214 1.93476 8.35702 1.30964C7.7319 0.684518 6.88406 0.333328 6 0.333328ZM6 5.66666C5.60444 5.66666 5.21776 5.54936 4.88886 5.3296C4.55996 5.10984 4.30362 4.79748 4.15224 4.43203C4.00087 4.06658 3.96126 3.66444 4.03843 3.27648C4.1156 2.88852 4.30608 2.53215 4.58579 2.25245C4.86549 1.97274 5.22186 1.78226 5.60982 1.70509C5.99778 1.62792 6.39991 1.66753 6.76537 1.8189C7.13082 1.97028 7.44318 2.22662 7.66294 2.55552C7.8827 2.88442 8 3.2711 8 3.66666C8 4.19709 7.78929 4.7058 7.41421 5.08088C7.03914 5.45595 6.53043 5.66666 6 5.66666ZM12 13V12.3333C12 11.0957 11.5083 9.90867 10.6332 9.0335C9.758 8.15833 8.57101 7.66666 7.33333 7.66666H4.66667C3.42899 7.66666 2.242 8.15833 1.36683 9.0335C0.491665 9.90867 0 11.0957 0 12.3333V13H1.33333V12.3333C1.33333 11.4493 1.68452 10.6014 2.30964 9.97631C2.93477 9.35118 3.78261 9 4.66667 9H7.33333C8.21739 9 9.06524 9.35118 9.69036 9.97631C10.3155 10.6014 10.6667 11.4493 10.6667 12.3333V13H12Z" fill="black" fill-opacity="0.65"/>
</svg>
