<svg width="400" height="301" viewBox="0 0 400 301" fill="none" xmlns="http://www.w3.org/2000/svg">
<g clip-path="url(#clip0_1105_9998)">
<path d="M277.914 30.1086C286.228 30.1086 292.968 23.3685 292.968 15.0543C292.968 6.74003 286.228 0 277.914 0C269.599 0 262.859 6.74003 262.859 15.0543C262.859 23.3685 269.599 30.1086 277.914 30.1086Z" fill="#FF6584"/>
<path d="M318.268 287.444L312.846 287.556L309.824 266.232L317.826 266.066L318.268 287.444Z" fill="#FFB6B6"/>
<path d="M301.158 296.569C301.186 297.907 302.293 298.97 303.631 298.944L314.411 298.72L316.186 294.84L316.991 298.664L321.058 298.582L319.632 284.903L318.215 284.85L312.432 284.621L310.567 284.55L310.648 288.43L302.162 294.554C301.516 295.02 301.141 295.773 301.158 296.569Z" fill="#2F2E41"/>
<path d="M354.756 287.444L349.334 287.556L346.311 266.232L354.313 266.066L354.756 287.444Z" fill="#FFB6B6"/>
<path d="M337.645 296.569C337.674 297.907 338.78 298.97 340.119 298.944L350.898 298.72L352.673 294.84L353.478 298.664L357.546 298.582L356.119 284.903L354.702 284.85L348.92 284.621L347.054 284.55L347.135 288.43L338.649 294.554C338.004 295.02 337.628 295.773 337.645 296.569Z" fill="#2F2E41"/>
<path d="M323.733 123.493L353.586 122.664L351.928 125.152L355.705 128.883C355.705 128.883 369.342 147.542 365.196 164.541C361.049 181.541 363.384 282.042 363.384 282.042L339.074 279.393L341.769 178.017L321.867 216.162L327.654 278.002L306.941 277.942L300.307 211.187L323.733 123.493V123.493Z" fill="#2F2E41"/>
<path d="M198.851 43.2893C198.964 43.5662 199.352 43.5661 199.464 43.2893C200.248 41.3576 201.363 39.1944 202.576 37.5412C202.771 37.2765 202.503 36.9228 202.194 37.0345L199.593 37.9755V21.8743H198.722V37.9755L196.121 37.0344C195.812 36.9227 195.544 37.2764 195.738 37.5411C196.952 39.1943 198.067 41.3576 198.851 43.2893H198.851Z" fill="#3F3D56"/>
<path d="M215.908 59.8678C215.824 60.1545 216.128 60.3957 216.388 60.2487C218.203 59.2233 220.422 58.2231 222.4 57.6831C222.717 57.5966 222.727 57.1531 222.416 57.0486L219.794 56.1679L229.807 43.5591L229.126 43.0176L219.112 55.6264L217.66 53.2712C217.487 52.9917 217.058 53.1022 217.045 53.4302C216.967 55.4795 216.496 57.8674 215.908 59.8678Z" fill="#3F3D56"/>
<path d="M279.506 89.2866L295.584 87.4333L297.924 96.4706L280.855 97.8252C280.492 98.2014 280.069 98.5319 279.588 98.799C276.973 100.252 273.674 99.3097 272.221 96.6943C270.768 94.0788 271.711 90.7807 274.326 89.3276C275.994 88.401 277.938 88.4522 279.506 89.2866Z" fill="#FFB6B6"/>
<path d="M356.492 68.4418L350.199 58.8923C349.055 59.8006 348.052 60.7139 347.294 61.5218L345.989 62.42L341.774 66.1886L329.841 76.842L325.872 80.3898L321.441 81.1676L311.66 82.8888L296.849 86.8744L285.943 87.5807C285.938 87.8015 285.938 88.1328 285.938 88.5442C285.933 90.6869 285.983 95.0226 286.404 97.3861C286.55 98.2091 286.741 98.7912 286.991 98.9668C287.072 99.022 295.424 96.4138 295.846 96.4087C299.243 96.4037 304.921 97.3359 316.377 95.8456C323.182 94.9523 329.174 94.1394 331.693 93.7931L331.748 93.7831L333.569 92.8999L353.566 83.215L359.603 80.2895C359.101 76.2449 358.063 72.2555 356.492 68.4418V68.4418Z" fill="#FF6584"/>
<path d="M11.3861 14.021C5.09771 14.021 0 19.1187 0 25.4071V218.257H1.00362V93.1463C1.00362 50.0007 35.9797 15.0246 79.1253 15.0246L278.687 14.8421L278.504 14.021H11.3861Z" fill="#3F3D56"/>
<path d="M64.0841 46.0642C66.4278 46.0642 68.3277 44.1219 68.3277 41.726C68.3277 39.3301 66.4278 37.3879 64.0841 37.3879C61.7404 37.3879 59.8405 39.3301 59.8405 41.726C59.8405 44.1219 61.7404 46.0642 64.0841 46.0642Z" fill="#3F3D56"/>
<path d="M78.7438 46.0642C81.0875 46.0642 82.9874 44.1219 82.9874 41.726C82.9874 39.3301 81.0875 37.3879 78.7438 37.3879C76.4002 37.3879 74.5002 39.3301 74.5002 41.726C74.5002 44.1219 76.4002 46.0642 78.7438 46.0642Z" fill="#3F3D56"/>
<path d="M93.4036 46.0642C95.7473 46.0642 97.6472 44.1219 97.6472 41.726C97.6472 39.3301 95.7473 37.3879 93.4036 37.3879C91.0599 37.3879 89.16 39.3301 89.16 41.726C89.16 44.1219 91.0599 46.0642 93.4036 46.0642Z" fill="#3F3D56"/>
<path d="M167.36 92.8347C161.072 92.8347 155.974 97.9324 155.974 104.221L155.974 186.673H156.978V171.96C156.978 128.814 191.954 93.8384 235.099 93.8384L307.703 93.6559L307.52 92.8348L167.36 92.8347Z" fill="#F2F2F2"/>
<path d="M209.519 144.005C208.966 144.005 208.515 144.456 208.515 145.009V160.565C208.515 161.119 208.966 161.569 209.519 161.569C210.073 161.569 210.523 161.119 210.523 160.565V145.009C210.523 144.456 210.073 144.005 209.519 144.005Z" fill="#3F3D56"/>
<path d="M219.355 158.995C222.809 158.995 225.609 156.254 225.609 152.873C225.609 149.491 222.809 146.75 219.355 146.75C215.901 146.75 213.101 149.491 213.101 152.873C213.101 156.254 215.901 158.995 219.355 158.995Z" fill="#FF6584"/>
<path d="M269.492 150.778L235.828 150.778C234.674 150.778 233.734 149.838 233.734 148.684C233.734 147.529 234.674 146.589 235.828 146.589L269.492 146.589C270.647 146.589 271.587 147.529 271.587 148.684C271.587 149.839 270.647 150.778 269.492 150.778Z" fill="#F2F2F2"/>
<path d="M295.764 157.867L235.828 157.867C234.674 157.867 233.734 156.928 233.734 155.773C233.734 154.618 234.674 153.678 235.828 153.678L295.764 153.678C296.919 153.678 297.858 154.618 297.858 155.773C297.858 156.928 296.919 157.867 295.764 157.867Z" fill="#F2F2F2"/>
<path d="M212.62 117.321C214.963 117.321 216.863 115.379 216.863 112.983C216.863 110.587 214.963 108.645 212.62 108.645C210.276 108.645 208.376 110.587 208.376 112.983C208.376 115.379 210.276 117.321 212.62 117.321Z" fill="#F2F2F2"/>
<path d="M227.279 117.321C229.623 117.321 231.523 115.379 231.523 112.983C231.523 110.587 229.623 108.645 227.279 108.645C224.936 108.645 223.036 110.587 223.036 112.983C223.036 115.379 224.936 117.321 227.279 117.321Z" fill="#F2F2F2"/>
<path d="M241.939 117.321C244.283 117.321 246.183 115.379 246.183 112.983C246.183 110.587 244.283 108.645 241.939 108.645C239.595 108.645 237.695 110.587 237.695 112.983C237.695 115.379 239.595 117.321 241.939 117.321Z" fill="#F2F2F2"/>
<path d="M45.3405 85.0092C44.787 85.0092 44.3369 85.4593 44.3369 86.0129V101.569C44.3369 102.122 44.787 102.573 45.3405 102.573C45.894 102.573 46.3442 102.122 46.3442 101.569V86.0129C46.3442 85.4593 45.894 85.0092 45.3405 85.0092Z" fill="#3F3D56"/>
<path d="M55.1765 99.9989C58.6306 99.9989 61.4307 97.2578 61.4307 93.8764C61.4307 90.4951 58.6306 87.754 55.1765 87.754C51.7225 87.754 48.9224 90.4951 48.9224 93.8764C48.9224 97.2578 51.7225 99.9989 55.1765 99.9989Z" fill="#FF6584"/>
<path d="M105.314 91.7819H71.6499C70.495 91.7819 69.5554 90.8423 69.5554 89.6874C69.5554 88.5325 70.495 87.5929 71.6499 87.5929H105.314C106.469 87.5929 107.408 88.5325 107.408 89.6874C107.408 90.8423 106.469 91.7819 105.314 91.7819Z" fill="#F2F2F2"/>
<path d="M131.585 98.871H71.6499C70.495 98.871 69.5554 97.9314 69.5554 96.7765C69.5554 95.6216 70.495 94.682 71.6499 94.682H131.585C132.74 94.682 133.68 95.6216 133.68 96.7765C133.68 97.9314 132.74 98.871 131.585 98.871Z" fill="#F2F2F2"/>
<path d="M45.3405 128.165C44.787 128.165 44.3369 128.615 44.3369 129.168V144.725C44.3369 145.278 44.787 145.728 45.3405 145.728C45.894 145.728 46.3442 145.278 46.3442 144.725V129.168C46.3442 128.615 45.894 128.165 45.3405 128.165Z" fill="#3F3D56"/>
<path d="M55.1765 143.154C58.6306 143.154 61.4307 140.413 61.4307 137.032C61.4307 133.651 58.6306 130.91 55.1765 130.91C51.7225 130.91 48.9224 133.651 48.9224 137.032C48.9224 140.413 51.7225 143.154 55.1765 143.154Z" fill="#FF6584"/>
<path d="M105.314 134.938H71.6499C70.495 134.938 69.5554 133.998 69.5554 132.843C69.5554 131.688 70.495 130.748 71.6499 130.748H105.314C106.469 130.748 107.408 131.688 107.408 132.843C107.408 133.998 106.469 134.938 105.314 134.938Z" fill="#F2F2F2"/>
<path d="M131.585 142.027H71.6499C70.495 142.027 69.5554 141.087 69.5554 139.932C69.5554 138.777 70.495 137.838 71.6499 137.838H131.585C132.74 137.838 133.68 138.777 133.68 139.932C133.68 141.087 132.74 142.027 131.585 142.027Z" fill="#F2F2F2"/>
<path d="M45.3405 171.32C44.787 171.32 44.3369 171.771 44.3369 172.324V187.88C44.3369 188.434 44.787 188.884 45.3405 188.884C45.894 188.884 46.3442 188.434 46.3442 187.88V172.324C46.3442 171.771 45.894 171.32 45.3405 171.32Z" fill="#3F3D56"/>
<path d="M55.1765 186.31C58.6306 186.31 61.4307 183.569 61.4307 180.188C61.4307 176.806 58.6306 174.065 55.1765 174.065C51.7224 174.065 48.9223 176.806 48.9223 180.188C48.9223 183.569 51.7224 186.31 55.1765 186.31Z" fill="#FF6584"/>
<path d="M105.314 178.093H71.6499C70.495 178.093 69.5554 177.153 69.5554 175.999C69.5554 174.844 70.495 173.904 71.6499 173.904H105.314C106.469 173.904 107.408 174.844 107.408 175.999C107.408 177.153 106.469 178.093 105.314 178.093Z" fill="#F2F2F2"/>
<path d="M131.585 185.182H71.6499C70.495 185.182 69.5554 184.243 69.5554 183.088C69.5554 181.933 70.495 180.993 71.6499 180.993H131.585C132.74 180.993 133.68 181.933 133.68 183.088C133.68 184.243 132.74 185.182 131.585 185.182Z" fill="#F2F2F2"/>
<path d="M361.583 139.564C360.962 144.29 328.789 133.101 324.95 131.034C317.77 127.175 325.283 131.133 325.283 131.133L324.449 107.449L323.578 93.3365C323.578 93.3365 323.092 89.588 322.073 84.8058C321.842 83.7319 321.596 82.4874 321.441 81.1676C320.999 77.3589 321.335 72.9329 325.084 70.2533L338.156 50.763L344.594 50.3866L350.199 58.8923L356.492 68.4418C358.063 72.2555 359.101 76.2449 359.603 80.2895C359.839 82.1813 359.96 84.0882 359.96 86.0001C359.96 89.3672 359.593 92.7444 358.851 96.0664L354.911 107.111C354.911 107.111 354.416 108.98 356.146 110.027C359.656 112.15 352.55 117.987 356.899 125.216C356.899 125.216 356.492 128.538 358.429 128.829C360.366 129.126 361.844 137.574 361.583 139.564Z" fill="#FF6584"/>
<path d="M299.08 150.919L308.626 137.849L316.854 142.26L306.269 155.72C306.299 156.242 306.255 156.777 306.125 157.312C305.418 160.219 302.488 162.003 299.581 161.296C296.674 160.589 294.89 157.659 295.597 154.752C296.047 152.898 297.404 151.505 299.08 150.919Z" fill="#FFB6B6"/>
<path d="M339.398 68.4696C337.22 66.9029 334.669 65.7947 331.862 65.303C328.032 64.6348 325.884 70.1463 325.039 75.5218C324.651 78.0132 324.536 80.4767 324.67 82.275L324.444 83.848L324.312 91.9908L324.001 110.816L314.412 125.012L310.398 134.546L302.194 145.032C302.354 145.187 302.599 145.411 302.901 145.693C304.474 147.149 307.686 150.051 309.711 151.346C310.414 151.792 310.969 152.046 311.268 151.984C311.362 151.963 317.138 146.399 317.423 146.088C319.339 144.002 319.717 141.203 325.51 133.067C330.787 125.663 335.932 118.299 337.791 115.635L337.825 115.587L346.177 88.0399L346.937 85.5428C347.747 78.7042 344.666 72.2537 339.398 68.4696Z" fill="#FF6584"/>
<path d="M334.662 68.8822C334.646 68.8762 334.632 68.869 334.617 68.863C334.488 68.8737 334.36 68.8814 334.235 68.8822H334.662Z" fill="#2F2E41"/>
<path d="M338.407 47.2499C346.469 47.2499 353.004 40.7147 353.004 32.6532C353.004 24.5917 346.469 18.0565 338.407 18.0565C330.346 18.0565 323.811 24.5917 323.811 32.6532C323.811 40.7147 330.346 47.2499 338.407 47.2499Z" fill="#FFB6B6"/>
<path d="M318.645 28.596C317.659 21.5199 320.532 19.355 325.028 18.7137C333.921 14.0917 335.959 15.2535 338.778 15.7552L339.814 15.5323C342.994 14.8481 344.148 15.14 346.976 16.209C352.941 18.4582 356.859 24.1616 357.293 30.5213C357.592 34.9055 356.218 35.5881 358.759 39.1485C360.885 42.121 359.259 46.2931 355.691 47.0608L352.37 52.0818C351.561 51.0596 350.915 49.9884 350.182 48.6462C349.893 49.8438 349.861 51.2152 350.012 52.5892C346.705 54.2361 343.095 54.9176 339.267 54.901C338.651 54.0803 338.099 53.1663 338.172 52.1367C337.959 53.1684 337.699 54.1963 337.654 55.2479C335.246 53.697 333.255 54.1526 331.665 56.5365C327.651 53.209 327.336 45.5846 332.108 43.6747C336.146 42.059 329.777 30.748 325.435 30.5174C325.407 30.5159 324.25 34.8891 324.209 34.8069C323.596 33.5813 323.876 32.9095 323.144 31.5672C322.903 32.5769 322.838 33.7077 322.917 34.8588C321.883 34.6328 320.835 34.3021 319.778 33.8614C318.551 32.1959 318.077 30.4509 318.645 28.596V28.596Z" fill="#2F2E41"/>
<path d="M372.772 291.507C373.809 291.572 374.382 290.284 373.598 289.533L373.52 289.223C373.53 289.198 373.54 289.173 373.551 289.148C374.599 286.648 378.152 286.666 379.192 289.169C380.114 291.391 381.289 293.617 381.578 295.967C381.708 297.004 381.65 298.061 381.419 299.078C383.581 294.356 384.719 289.199 384.719 284.014C384.719 282.711 384.648 281.408 384.502 280.108C384.382 279.045 384.217 277.988 384.003 276.941C382.846 271.282 380.34 265.892 376.726 261.391C374.989 260.441 373.54 258.956 372.665 257.177C372.351 256.535 372.104 255.845 371.988 255.142C372.185 255.168 372.733 252.157 372.584 251.972C372.86 251.554 373.353 251.346 373.654 250.938C375.15 248.909 377.212 249.263 378.289 252.02C380.588 253.181 380.61 255.106 379.199 256.957C378.302 258.134 378.178 259.728 377.391 260.989C377.472 261.092 377.556 261.193 377.637 261.297C379.123 263.202 380.408 265.251 381.491 267.403C381.185 265.011 381.637 262.13 382.408 260.272C383.285 258.156 384.93 256.374 386.378 254.544C388.117 252.347 391.683 253.306 391.99 256.091C391.993 256.118 391.996 256.145 391.998 256.172C391.783 256.294 391.573 256.423 391.367 256.559C390.193 257.335 390.599 259.155 391.99 259.37L392.021 259.375C391.943 260.149 391.81 260.917 391.616 261.673C393.474 268.856 389.463 271.473 383.737 271.59C383.61 271.655 383.487 271.72 383.361 271.782C383.941 273.415 384.405 275.091 384.748 276.789C385.056 278.29 385.27 279.807 385.39 281.33C385.539 283.252 385.526 285.184 385.364 287.102L385.374 287.034C385.785 284.921 386.933 282.947 388.599 281.579C391.08 279.541 394.587 278.79 397.264 277.151C398.553 276.363 400.204 277.382 399.979 278.876L399.968 278.948C399.57 279.11 399.181 279.298 398.805 279.508C398.59 279.63 398.379 279.759 398.173 279.895C396.999 280.671 397.405 282.491 398.796 282.706L398.828 282.711C398.85 282.714 398.87 282.717 398.892 282.72C398.208 284.344 397.256 285.851 396.063 287.151C394.901 293.422 389.913 294.017 384.576 292.191H384.573C383.99 294.732 383.137 297.215 382.042 299.581H372.999C372.967 299.48 372.937 299.376 372.908 299.276C373.744 299.328 374.587 299.279 375.41 299.127C374.739 298.304 374.069 297.474 373.398 296.651C373.381 296.634 373.368 296.618 373.356 296.602C373.015 296.181 372.672 295.763 372.331 295.341L372.331 295.341C372.31 294.047 372.465 292.758 372.772 291.507L372.772 291.507V291.507Z" fill="#F2F2F2"/>
<path d="M271.632 299.608C271.632 299.939 271.898 300.205 272.229 300.205H399.333C399.664 300.205 399.93 299.939 399.93 299.608C399.93 299.276 399.664 299.01 399.333 299.01H272.229C271.898 299.01 271.632 299.276 271.632 299.608Z" fill="#CCCCCC"/>
<path d="M207.762 70.6126H190.841C189.79 70.6126 188.935 69.7579 188.935 68.7073C186.698 62.1679 186.742 55.7602 188.935 49.4764C188.935 48.4258 189.79 47.5711 190.841 47.5711H207.762C208.813 47.5711 209.668 48.4258 209.668 49.4764V68.7073C209.668 69.7579 208.813 70.6126 207.762 70.6126Z" fill="#E6E6E6"/>
<path d="M194.466 48.1388C191.725 48.1388 189.503 50.3609 189.503 53.102V68.2993C189.503 69.2634 190.285 70.0449 191.249 70.0449H200.606C205.297 70.0449 209.1 66.2422 209.1 61.5513V49.8844C209.1 48.9203 208.318 48.1388 207.354 48.1388H194.466Z" fill="white"/>
<path d="M203.242 53.7274H195.32C195.12 53.7274 194.958 53.5649 194.958 53.3651C194.958 53.1654 195.12 53.0029 195.32 53.0029H203.242C203.442 53.0029 203.605 53.1654 203.605 53.3651C203.605 53.5649 203.442 53.7274 203.242 53.7274Z" fill="#E6E6E6"/>
<path d="M203.242 61.4515H195.32C195.12 61.4515 194.958 61.289 194.958 61.0892C194.958 60.8895 195.12 60.7271 195.32 60.7271H203.242C203.442 60.7271 203.605 60.8895 203.605 61.0892C203.605 61.289 203.442 61.4515 203.242 61.4515Z" fill="#E6E6E6"/>
<path d="M207.494 57.592H191.068C190.869 57.592 190.706 57.4294 190.706 57.2297C190.706 57.03 190.869 56.8675 191.068 56.8675H207.494C207.693 56.8675 207.856 57.03 207.856 57.2297C207.856 57.4294 207.693 57.592 207.494 57.592Z" fill="#E6E6E6"/>
<path d="M207.687 64.5921H200.834C200.634 64.5921 200.471 64.4296 200.471 64.2299C200.471 64.0301 200.634 63.8677 200.834 63.8677H207.687C207.887 63.8677 208.05 64.0301 208.05 64.2299C208.05 64.4296 207.887 64.5921 207.687 64.5921Z" fill="#E6E6E6"/>
</g>
<defs>
<clipPath id="clip0_1105_9998">
<rect width="400" height="300.205" fill="white"/>
</clipPath>
</defs>
</svg>
