<svg width="8" height="14" viewBox="0 0 8 14" fill="none" xmlns="http://www.w3.org/2000/svg">
<path d="M7.11111 0.777779H0.888889C0.653141 0.777779 0.427049 0.871429 0.26035 1.03813C0.0936507 1.20483 0 1.43092 0 1.66667V12.3333C0 12.5691 0.0936507 12.7952 0.26035 12.9619C0.427049 13.1286 0.653141 13.2222 0.888889 13.2222H7.11111C7.34686 13.2222 7.57295 13.1286 7.73965 12.9619C7.90635 12.7952 8 12.5691 8 12.3333V1.66667C8 1.43092 7.90635 1.20483 7.73965 1.03813C7.57295 0.871429 7.34686 0.777779 7.11111 0.777779ZM0.888889 1.66667H7.11111V9.66667H0.888889V1.66667ZM0.888889 12.3333V10.5556H7.11111V12.3333H0.888889Z" fill="black" fill-opacity="0.65"/>
</svg>
