<svg width="16" height="16" viewBox="0 0 16 16" fill="none" xmlns="http://www.w3.org/2000/svg">
<path d="M8.00001 11.3333L8.66668 10V6.57201C9.81401 6.27401 10.6667 5.23868 10.6667 4.00001C10.6667 2.52934 9.47068 1.33334 8.00001 1.33334C6.52934 1.33334 5.33334 2.52934 5.33334 4.00001C5.33334 5.23868 6.18601 6.27401 7.33334 6.57201V10L8.00001 11.3333Z" fill="black" fill-opacity="0.65"/>
<path d="M10.8447 7.04199L10.4893 8.32732C12.2167 8.80465 13.3333 9.72265 13.3333 10.6667C13.3333 11.928 11.1433 13.3333 8.00001 13.3333C4.85668 13.3333 2.66668 11.928 2.66668 10.6667C2.66668 9.72265 3.78334 8.80465 5.51134 8.32665L5.15601 7.04132C2.79801 7.69332 1.33334 9.08199 1.33334 10.6667C1.33334 12.9093 4.26201 14.6667 8.00001 14.6667C11.738 14.6667 14.6667 12.9093 14.6667 10.6667C14.6667 9.08199 13.202 7.69332 10.8447 7.04199Z" fill="black" fill-opacity="0.65"/>
</svg>
